<svg width="8" height="8" viewBox="0 0 8 8" fill="none" xmlns="http://www.w3.org/2000/svg">
<path d="M3.99984 0.000325508C4.54843 0.000325508 5.06577 0.104488 5.55186 0.312813C6.03795 0.521138 6.46154 0.805848 6.82264 1.16694C7.18374 1.52804 7.47192 1.95511 7.68719 2.44814C7.90246 2.94118 8.00662 3.45852 7.99967 4.00016C7.99967 4.5557 7.89551 5.07304 7.68719 5.55218C7.47886 6.03133 7.19415 6.45492 6.83306 6.82296C6.47196 7.19101 6.04489 7.47919 5.55186 7.68751C5.05882 7.89584 4.54148 8 3.99984 8C3.4443 8 2.92696 7.89584 2.44782 7.68751C1.96867 7.47919 1.54508 7.19448 1.17704 6.83338C0.808995 6.47228 0.520812 6.04869 0.312487 5.5626C0.104162 5.07651 0 4.5557 0 4.00016C0 3.45157 0.104162 2.93423 0.312487 2.44814C0.520812 1.96205 0.805523 1.53846 1.16662 1.17736C1.52772 0.816265 1.95131 0.528082 2.4374 0.312813C2.92349 0.0975438 3.4443 -0.00661865 3.99984 0.000325508Z" fill="#5C5C5C"/>
</svg>
