<svg width="16" height="17" viewBox="0 0 16 17" fill="none" xmlns="http://www.w3.org/2000/svg">
<path d="M13.4719 0.012207L15.9998 2.54015L14.0727 4.46812L11.5448 1.94018L13.4719 0.012207ZM4.21289 11.7991H6.74083L12.8812 5.65878L10.3533 3.13084L4.21289 9.27121V11.7991Z" fill="#666666"/>
<path d="M13.4823 14.3271H4.34637C4.32446 14.3271 4.30171 14.3355 4.2798 14.3355C4.252 14.3355 4.22419 14.3279 4.19554 14.3271H1.68529V2.53002H7.4549L9.14019 0.844727H1.68529C0.755854 0.844727 0 1.59974 0 2.53002V14.3271C0 15.2574 0.755854 16.0124 1.68529 16.0124H13.4823C13.9293 16.0124 14.358 15.8348 14.674 15.5188C14.9901 15.2027 15.1676 14.774 15.1676 14.3271V7.02301L13.4823 8.7083V14.3271Z" fill="#666666"/>
</svg>
