<svg width="17" height="12" viewBox="0 0 17 12" fill="none" xmlns="http://www.w3.org/2000/svg">
<path d="M17.01 10.5V1.5C17.01 0.67 16.34 0 15.51 0H1.5C0.67 0 0 0.67 0 1.5V10.5C0 11.33 0.67 12 1.5 12H15.51C16.34 12 17.01 11.33 17.01 10.5ZM15.7 1.39C16.03 1.72 15.85 2.06 15.67 2.23L11.61 5.95L15.51 10.01C15.63 10.15 15.71 10.37 15.57 10.52C15.44 10.68 15.14 10.67 15.01 10.57L10.64 6.84L8.5 8.79L6.37 6.84L2 10.57C1.87 10.67 1.57 10.68 1.44 10.52C1.3 10.37 1.38 10.15 1.5 10.01L5.4 5.95L1.34 2.23C1.16 2.06 0.98 1.72 1.31 1.39C1.64 1.06 1.98 1.22 2.26 1.46L8.5 6.5L14.75 1.46C15.03 1.22 15.37 1.06 15.7 1.39Z" fill="white"/>
</svg>
