<svg width="14" height="12" viewBox="0 0 14 12" fill="none" xmlns="http://www.w3.org/2000/svg">
<path d="M5.14196 3.53486e-07C4.61006 -0.000278488 4.09117 0.164419 3.6568 0.471394C3.22243 0.77837 2.89397 1.21251 2.71667 1.71399H0V3.42797H2.71667C2.89372 3.92977 3.22207 4.36429 3.65645 4.67165C4.09082 4.979 4.60984 5.14406 5.14196 5.14406C5.67408 5.14406 6.19309 4.979 6.62747 4.67165C7.06184 4.36429 7.39019 3.92977 7.56725 3.42797H13.7119V1.71399H7.56725C7.38995 1.21251 7.06148 0.77837 6.62711 0.471394C6.19274 0.164419 5.67385 -0.000278488 5.14196 3.53486e-07ZM4.28496 2.57098C4.28496 2.34369 4.37525 2.12571 4.53597 1.96499C4.69669 1.80428 4.91467 1.71399 5.14196 1.71399C5.36925 1.71399 5.58723 1.80428 5.74794 1.96499C5.90866 2.12571 5.99895 2.34369 5.99895 2.57098C5.99895 2.79827 5.90866 3.01625 5.74794 3.17696C5.58723 3.33768 5.36925 3.42797 5.14196 3.42797C4.91467 3.42797 4.69669 3.33768 4.53597 3.17696C4.37525 3.01625 4.28496 2.79827 4.28496 2.57098ZM8.56993 6.85594C8.03803 6.85566 7.51915 7.02036 7.08478 7.32734C6.65041 7.63431 6.32194 8.06845 6.14464 8.56993H0V10.2839H6.14464C6.3217 10.7857 6.65004 11.2202 7.08442 11.5276C7.51879 11.8349 8.03781 12 8.56993 12C9.10205 12 9.62106 11.8349 10.0554 11.5276C10.4898 11.2202 10.8182 10.7857 10.9952 10.2839H13.7119V8.56993H10.9952C10.8179 8.06845 10.4895 7.63431 10.0551 7.32734C9.62071 7.02036 9.10182 6.85566 8.56993 6.85594ZM7.71294 9.42692C7.71294 9.19963 7.80323 8.98165 7.96394 8.82094C8.12466 8.66022 8.34264 8.56993 8.56993 8.56993C8.79722 8.56993 9.0152 8.66022 9.17591 8.82094C9.33663 8.98165 9.42692 9.19963 9.42692 9.42692C9.42692 9.65421 9.33663 9.87219 9.17591 10.0329C9.0152 10.1936 8.79722 10.2839 8.56993 10.2839C8.34264 10.2839 8.12466 10.1936 7.96394 10.0329C7.80323 9.87219 7.71294 9.65421 7.71294 9.42692Z" fill="#8C8C8C"/>
</svg>
