<svg width="18" height="12" viewBox="0 0 18 12" fill="none" xmlns="http://www.w3.org/2000/svg">
<path fill-rule="evenodd" clip-rule="evenodd" d="M16.6241 5.45391C15.87 1.24228 14.184 0 13.2871 0C11.8875 0 11.5284 1.04051 8.54967 1.07556C5.57093 1.04051 5.21184 0 3.81224 0C2.91537 0 1.22849 1.24228 0.474403 5.45391C0.0443491 7.85811 -0.422469 11.4473 0.689858 11.8782C2.07407 12.4143 2.54345 11.0737 4.0636 9.94084C5.60684 8.7926 6.34725 8.52243 8.54967 8.52243C10.7521 8.52243 11.4925 8.7926 13.0357 9.94084C14.5559 11.0728 15.0253 12.4143 16.4095 11.8782C17.5218 11.4473 17.055 7.85896 16.6241 5.45391ZM5.12976 6.00024C4.67625 6.00024 4.24132 5.82008 3.92064 5.4994C3.59996 5.17872 3.4198 4.74379 3.4198 4.29028C3.4198 3.83677 3.59996 3.40184 3.92064 3.08116C4.24132 2.76048 4.67625 2.58033 5.12976 2.58033C5.58327 2.58033 6.0182 2.76048 6.33888 3.08116C6.65956 3.40184 6.83972 3.83677 6.83972 4.29028C6.83972 4.74379 6.65956 5.17872 6.33888 5.4994C6.0182 5.82008 5.58327 6.00024 5.12976 6.00024ZM11.1146 6.00024C10.8879 6.00024 10.6704 5.91016 10.51 5.74982C10.3497 5.58948 10.2596 5.37202 10.2596 5.14526C10.2596 4.91851 10.3497 4.70104 10.51 4.5407C10.6704 4.38036 10.8879 4.29028 11.1146 4.29028C11.3414 4.29028 11.5588 4.38036 11.7192 4.5407C11.8795 4.70104 11.9696 4.91851 11.9696 5.14526C11.9696 5.37202 11.8795 5.58948 11.7192 5.74982C11.5588 5.91016 11.3414 6.00024 11.1146 6.00024ZM12.8246 4.29028C12.5978 4.29028 12.3803 4.2002 12.22 4.03986C12.0597 3.87952 11.9696 3.66206 11.9696 3.4353C11.9696 3.20855 12.0597 2.99108 12.22 2.83074C12.3803 2.6704 12.5978 2.58033 12.8246 2.58033C13.0513 2.58033 13.2688 2.6704 13.4291 2.83074C13.5895 2.99108 13.6795 3.20855 13.6795 3.4353C13.6795 3.66206 13.5895 3.87952 13.4291 4.03986C13.2688 4.2002 13.0513 4.29028 12.8246 4.29028Z" fill="#53E059"/>
</svg>
