<svg width="17" height="16" viewBox="0 0 17 16" fill="none" xmlns="http://www.w3.org/2000/svg">
<path d="M8.19862 0C7.12196 0 6.05584 0.212064 5.06114 0.624083C4.06644 1.0361 3.16263 1.64001 2.40132 2.40132C0.86378 3.93886 0 6.02421 0 8.19862C0 11.8224 2.353 14.8969 5.60785 15.9873C6.01778 16.0529 6.14896 15.7987 6.14896 15.5774V14.1918C3.87795 14.6837 3.39423 13.0932 3.39423 13.0932C3.01709 12.1421 2.48418 11.888 2.48418 11.888C1.73811 11.3797 2.54157 11.3961 2.54157 11.3961C3.36143 11.4535 3.79596 12.2405 3.79596 12.2405C4.50924 13.4867 5.71444 13.1178 6.18176 12.921C6.25554 12.3881 6.46871 12.0274 6.69827 11.8224C4.87818 11.6174 2.9679 10.9124 2.9679 7.78869C2.9679 6.87864 3.27945 6.14896 3.81236 5.56686C3.73037 5.36189 3.44342 4.50924 3.89434 3.40243C3.89434 3.40243 4.58303 3.18106 6.14896 4.23868C6.79665 4.05831 7.50173 3.96813 8.19862 3.96813C8.8955 3.96813 9.60058 4.05831 10.2483 4.23868C11.8142 3.18106 12.5029 3.40243 12.5029 3.40243C12.9538 4.50924 12.6669 5.36189 12.5849 5.56686C13.1178 6.14896 13.4293 6.87864 13.4293 7.78869C13.4293 10.9206 11.5109 11.6092 9.68257 11.8142C9.97772 12.0684 10.2483 12.5685 10.2483 13.3309V15.5774C10.2483 15.7987 10.3794 16.0611 10.7976 15.9873C14.0524 14.8887 16.3972 11.8224 16.3972 8.19862C16.3972 7.12196 16.1852 6.05584 15.7732 5.06114C15.3611 4.06644 14.7572 3.16263 13.9959 2.40132C13.2346 1.64001 12.3308 1.0361 11.3361 0.624083C10.3414 0.212064 9.27527 0 8.19862 0Z" fill="white"/>
</svg>
