<svg width="20" height="19" viewBox="0 0 20 19" fill="none" xmlns="http://www.w3.org/2000/svg">
<path fill-rule="evenodd" clip-rule="evenodd" d="M10 2.375C8.11033 2.375 6.29806 3.12567 4.96186 4.46186C3.62567 5.79806 2.875 7.61033 2.875 9.5C2.875 11.3897 3.62567 13.2019 4.96186 14.5381C6.29806 15.8743 8.11033 16.625 10 16.625C11.8897 16.625 13.7019 15.8743 15.0381 14.5381C16.3743 13.2019 17.125 11.3897 17.125 9.5C17.125 7.61033 16.3743 5.79806 15.0381 4.46186C13.7019 3.12567 11.8897 2.375 10 2.375ZM0.5 9.5C0.5 6.98044 1.50089 4.56408 3.28249 2.78249C5.06408 1.00089 7.48044 0 10 0C12.5196 0 14.9359 1.00089 16.7175 2.78249C18.4991 4.56408 19.5 6.98044 19.5 9.5C19.5 12.0196 18.4991 14.4359 16.7175 16.2175C14.9359 17.9991 12.5196 19 10 19C7.48044 19 5.06408 17.9991 3.28249 16.2175C1.50089 14.4359 0.5 12.0196 0.5 9.5Z" fill="#525252"/>
<path fill-rule="evenodd" clip-rule="evenodd" d="M16.7177 2.78225C16.9403 3.00494 17.0654 3.30693 17.0654 3.62182C17.0654 3.9367 16.9403 4.23869 16.7177 4.46138L4.96144 16.2176C4.73748 16.4339 4.43751 16.5536 4.12616 16.5509C3.8148 16.5482 3.51696 16.4233 3.29679 16.2032C3.07661 15.983 2.95173 15.6852 2.94902 15.3738C2.94631 15.0624 3.06601 14.7625 3.28232 14.5385L15.0386 2.78225C15.2613 2.55963 15.5632 2.43457 15.8781 2.43457C16.193 2.43457 16.495 2.55963 16.7177 2.78225Z" fill="#525252"/>
</svg>
