<svg width="18" height="20" viewBox="0 0 18 20" fill="none" xmlns="http://www.w3.org/2000/svg">
<path d="M8.93816 0.5C7.08165 0.5 5.30117 1.2375 3.98842 2.55025C2.67566 3.86301 1.93816 5.64348 1.93816 7.5V11.028C1.93831 11.1831 1.90236 11.3362 1.83316 11.475L0.116163 14.908C0.0322892 15.0757 -0.00731514 15.2621 0.00111129 15.4494C0.00953771 15.6368 0.0657151 15.8188 0.164308 15.9783C0.262901 16.1379 0.400635 16.2695 0.56443 16.3608C0.728224 16.4521 0.912641 16.5 1.10016 16.5H16.7762C16.9637 16.5 17.1481 16.4521 17.3119 16.3608C17.4757 16.2695 17.6134 16.1379 17.712 15.9783C17.8106 15.8188 17.8668 15.6368 17.8752 15.4494C17.8836 15.2621 17.844 15.0757 17.7602 14.908L16.0442 11.475C15.9746 11.3362 15.9383 11.1832 15.9382 11.028V7.5C15.9382 5.64348 15.2007 3.86301 13.8879 2.55025C12.5752 1.2375 10.7947 0.5 8.93816 0.5ZM8.93816 19.5C8.31751 19.5003 7.71204 19.3081 7.20518 18.9499C6.69833 18.5917 6.31505 18.0852 6.10816 17.5H11.7682C11.5613 18.0852 11.178 18.5917 10.6711 18.9499C10.1643 19.3081 9.55882 19.5003 8.93816 19.5Z" fill="#C4C4C4"/>
</svg>
