<svg width="14" height="14" viewBox="0 0 14 14" fill="none" xmlns="http://www.w3.org/2000/svg">
<path d="M7.99959 0C7.73438 0 7.48002 0.105357 7.29249 0.292893C7.10495 0.48043 6.99959 0.734784 6.99959 1C6.99959 1.26522 7.10495 1.51957 7.29249 1.70711C7.48002 1.89464 7.73438 2 7.99959 2H10.5856L4.29259 8.293C4.19708 8.38525 4.1209 8.49559 4.06849 8.6176C4.01608 8.7396 3.9885 8.87082 3.98734 9.0036C3.98619 9.13638 4.01149 9.26806 4.06177 9.39095C4.11205 9.51385 4.18631 9.6255 4.2802 9.71939C4.37409 9.81329 4.48574 9.88754 4.60864 9.93782C4.73154 9.9881 4.86321 10.0134 4.99599 10.0123C5.12877 10.0111 5.25999 9.98351 5.382 9.9311C5.504 9.87869 5.61435 9.80251 5.70659 9.707L11.9996 3.414V6C11.9996 6.26522 12.1049 6.51957 12.2925 6.70711C12.48 6.89464 12.7344 7 12.9996 7C13.2648 7 13.5192 6.89464 13.7067 6.70711C13.8942 6.51957 13.9996 6.26522 13.9996 6V1C13.9996 0.734784 13.8942 0.48043 13.7067 0.292893C13.5192 0.105357 13.2648 0 12.9996 0H7.99959Z" fill="#666666"/>
<path d="M2 2C1.46957 2 0.960859 2.21071 0.585786 2.58579C0.210714 2.96086 0 3.46957 0 4V12C0 12.5304 0.210714 13.0391 0.585786 13.4142C0.960859 13.7893 1.46957 14 2 14H10C10.5304 14 11.0391 13.7893 11.4142 13.4142C11.7893 13.0391 12 12.5304 12 12V9C12 8.73478 11.8946 8.48043 11.7071 8.29289C11.5196 8.10536 11.2652 8 11 8C10.7348 8 10.4804 8.10536 10.2929 8.29289C10.1054 8.48043 10 8.73478 10 9V12H2V4H5C5.26522 4 5.51957 3.89464 5.70711 3.70711C5.89464 3.51957 6 3.26522 6 3C6 2.73478 5.89464 2.48043 5.70711 2.29289C5.51957 2.10536 5.26522 2 5 2H2Z" fill="#666666"/>
</svg>
