<svg width="17" height="16" viewBox="0 0 17 16" fill="none" xmlns="http://www.w3.org/2000/svg">
<path d="M7.64911 8.832C7.64911 8.376 7.27311 8 6.81711 8C6.36111 8 5.98511 8.376 5.98511 8.832C5.98511 9.05266 6.07276 9.26428 6.22879 9.42031C6.38483 9.57634 6.59645 9.664 6.81711 9.664C7.03777 9.664 7.24939 9.57634 7.40542 9.42031C7.56145 9.26428 7.64911 9.05266 7.64911 8.832ZM10.3211 10.728C9.96111 11.088 9.19311 11.216 8.64911 11.216C8.10511 11.216 7.33711 11.088 6.97711 10.728C6.95765 10.7072 6.93411 10.6906 6.90797 10.6792C6.88182 10.6678 6.85361 10.662 6.82511 10.662C6.7966 10.662 6.7684 10.6678 6.74225 10.6792C6.7161 10.6906 6.69257 10.7072 6.67311 10.728C6.65227 10.7475 6.63567 10.771 6.62431 10.7971C6.61295 10.8233 6.60709 10.8515 6.60709 10.88C6.60709 10.9085 6.61295 10.9367 6.62431 10.9629C6.63567 10.989 6.65227 11.0125 6.67311 11.032C7.24111 11.6 8.32911 11.648 8.64911 11.648C8.96911 11.648 10.0571 11.6 10.6251 11.032C10.6459 11.0125 10.6625 10.989 10.6739 10.9629C10.6853 10.9367 10.6911 10.9085 10.6911 10.88C10.6911 10.8515 10.6853 10.8233 10.6739 10.7971C10.6625 10.771 10.6459 10.7475 10.6251 10.728C10.5451 10.648 10.4091 10.648 10.3211 10.728ZM10.4811 8C10.0251 8 9.64911 8.376 9.64911 8.832C9.64911 9.288 10.0251 9.664 10.4811 9.664C10.9371 9.664 11.3131 9.288 11.3131 8.832C11.3131 8.376 10.9451 8 10.4811 8Z" fill="white"/>
<path d="M8.64911 0C4.23311 0 0.649109 3.584 0.649109 8C0.649109 12.416 4.23311 16 8.64911 16C13.0651 16 16.6491 12.416 16.6491 8C16.6491 3.584 13.0651 0 8.64911 0ZM13.2891 9.064C13.3051 9.176 13.3131 9.296 13.3131 9.416C13.3131 11.208 11.2251 12.664 8.64911 12.664C6.07311 12.664 3.98511 11.208 3.98511 9.416C3.98511 9.296 3.99311 9.176 4.00911 9.064C3.60111 8.88 3.32111 8.472 3.32111 8C3.31992 7.7706 3.38655 7.54596 3.51262 7.3543C3.6387 7.16264 3.81859 7.01251 4.02971 6.92276C4.24084 6.83301 4.47377 6.80765 4.69926 6.84985C4.92475 6.89206 5.13274 6.99996 5.29711 7.16C6.10511 6.576 7.22511 6.208 8.46511 6.168L9.05711 3.376C9.06511 3.32 9.09711 3.272 9.14511 3.248C9.19311 3.216 9.24911 3.208 9.30511 3.216L11.2411 3.632C11.3068 3.49886 11.4069 3.38572 11.531 3.3043C11.6551 3.22288 11.7988 3.17616 11.947 3.16898C12.0953 3.16179 12.2428 3.19441 12.3742 3.26345C12.5056 3.33248 12.6162 3.43542 12.6944 3.56159C12.7726 3.68775 12.8157 3.83255 12.8191 3.98096C12.8225 4.12937 12.7861 4.27598 12.7137 4.4056C12.6414 4.53521 12.5356 4.6431 12.4075 4.71808C12.2794 4.79306 12.1336 4.83239 11.9851 4.832C11.5371 4.832 11.1771 4.48 11.1531 4.04L9.41711 3.672L8.88911 6.168C10.1131 6.208 11.2091 6.584 12.0091 7.16C12.1317 7.04289 12.2785 6.95399 12.4391 6.89952C12.5997 6.84505 12.7702 6.82632 12.9388 6.84465C13.1074 6.86298 13.2699 6.91792 13.415 7.00563C13.5602 7.09333 13.6844 7.21169 13.779 7.35242C13.8736 7.49315 13.9363 7.65285 13.9627 7.82035C13.9892 7.98784 13.9787 8.1591 13.932 8.32212C13.8854 8.48515 13.8037 8.63601 13.6926 8.76416C13.5816 8.8923 13.4438 8.99464 13.2891 9.064Z" fill="white"/>
</svg>
