<svg width="52" height="52" viewBox="0 0 52 52" fill="none" xmlns="http://www.w3.org/2000/svg">
<path d="M52 30.5882H45.3318C44.8118 32.7294 43.9859 34.7176 42.8541 36.4918L47.5647 41.2024L41.1412 47.6259L36.4306 42.9153C34.6565 44.0165 32.6682 44.8424 30.5882 45.3318V52H21.4118V45.3318C19.3318 44.8424 17.3435 44.0165 15.5694 42.9153L10.8588 47.6259L4.37412 41.1412L9.08471 36.4306C7.98353 34.6565 7.15765 32.6682 6.66824 30.5882H0V21.5035H6.63765C7.12706 19.3624 7.98353 17.3741 9.08471 15.5694L4.37412 10.8588L10.7976 4.43529L15.5082 9.14588C17.2824 8.01412 19.3012 7.18823 21.4118 6.66823V0H30.5882V6.66823C32.6682 7.15765 34.6565 7.98353 36.4306 9.08471L41.1412 4.37412L47.6259 10.8588L42.9153 15.5694C44.0165 17.3741 44.8729 19.3624 45.3624 21.5035H52V30.5882ZM26 35.1765C31.0776 35.1765 35.1765 31.0776 35.1765 26C35.1765 20.9224 31.0776 16.8235 26 16.8235C20.9224 16.8235 16.8235 20.9224 16.8235 26C16.8235 31.0776 20.9224 35.1765 26 35.1765Z" fill="black"/>
</svg>
