<svg width="16" height="16" viewBox="0 0 16 16" fill="none" xmlns="http://www.w3.org/2000/svg">
<path fill-rule="evenodd" clip-rule="evenodd" d="M15.0886 3.42858e-08C15.3303 3.42858e-08 15.5621 0.0960204 15.7331 0.266937C15.904 0.437854 16 0.669667 16 0.91138V6.06706C16 6.20955 15.9667 6.35006 15.9026 6.47732C15.8385 6.60457 15.7454 6.71503 15.6309 6.79981L9.07078 11.6484L9.93294 12.5114C10.1038 12.6823 10.1998 12.9141 10.1998 13.1558C10.1998 13.3974 10.1038 13.6292 9.93294 13.8001L8.64425 15.0888C8.50898 15.224 8.33463 15.3131 8.14588 15.3437C7.95713 15.3743 7.76354 15.3448 7.59251 15.2592L5.60206 14.2649L4.13292 15.7332C3.96201 15.904 3.73023 16 3.48857 16C3.2469 16 3.01513 15.904 2.84422 15.7332L0.26684 13.1558C0.0959825 12.9849 0 12.7531 0 12.5114C0 12.2698 0.0959825 12.038 0.26684 11.8671L1.73507 10.3979L0.740758 8.40748C0.655245 8.23646 0.62569 8.04287 0.656276 7.85412C0.686862 7.66537 0.77604 7.49102 0.911186 7.35575L2.19988 6.06706C2.37079 5.8962 2.60256 5.80022 2.84422 5.80022C3.08589 5.80022 3.31766 5.8962 3.48857 6.06706L4.35165 6.92922L9.20019 0.369109C9.28497 0.254587 9.39543 0.161538 9.52268 0.0974355C9.64994 0.0333326 9.79045 -3.90467e-05 9.93294 3.42858e-08H15.0886Z" fill="#949494"/>
</svg>
