<svg width="18" height="16" viewBox="0 0 18 16" fill="none" xmlns="http://www.w3.org/2000/svg">
<path d="M0 7.7037H3.07692V16H0V7.7037ZM12.9231 16H4.30769V7.22785L6.17969 4.52385L6.69969 1.01748C6.74284 0.735475 6.88958 0.47772 7.11327 0.291023C7.33696 0.104326 7.62276 0.00106815 7.91877 0H8C8.48948 0.000470646 8.95877 0.187923 9.30489 0.521219C9.651 0.854515 9.84567 1.30643 9.84615 1.77778V5.33333H14.7692C15.4218 5.33412 16.0475 5.5841 16.5089 6.02847C16.9704 6.47283 17.23 7.07528 17.2308 7.7037V11.8519C17.2295 12.9516 16.7752 14.006 15.9676 14.7836C15.1601 15.5613 14.0651 15.9987 12.9231 16Z" fill="#53E059"/>
</svg>
