<svg width="17" height="16" viewBox="0 0 17 16" fill="none" xmlns="http://www.w3.org/2000/svg">
<path d="M0 0H2.9932V8.2963H0V0ZM12.5714 0H4.19048V8.77215L6.01154 11.4761L6.51739 14.9825C6.55936 15.2645 6.70211 15.5223 6.91971 15.709C7.13731 15.8957 7.41533 15.9989 7.70329 16H7.78231C8.25847 15.9995 8.715 15.8121 9.05169 15.4788C9.38839 15.1455 9.57775 14.6936 9.57823 14.2222V10.6667H14.3673C15.0022 10.6659 15.6108 10.4159 16.0597 9.97153C16.5086 9.52717 16.7611 8.92472 16.7619 8.2963V4.14815C16.7606 3.04838 16.3187 1.99401 15.5331 1.21635C14.7476 0.438694 13.6824 0.00125473 12.5714 0Z" fill="#666666"/>
</svg>
