<svg width="5" height="16" viewBox="0 0 5 16" fill="none" xmlns="http://www.w3.org/2000/svg">
<path d="M2.28571 16C3.54808 16 4.57143 14.9767 4.57143 13.7143C4.57143 12.4519 3.54808 11.4286 2.28571 11.4286C1.02335 11.4286 0 12.4519 0 13.7143C0 14.9767 1.02335 16 2.28571 16Z" fill="#828282"/>
<path d="M2.28571 10.2856C3.54808 10.2856 4.57143 9.2623 4.57143 7.99994C4.57143 6.73758 3.54808 5.71423 2.28571 5.71423C1.02335 5.71423 0 6.73758 0 7.99994C0 9.2623 1.02335 10.2856 2.28571 10.2856Z" fill="#828282"/>
<path d="M2.28571 4.57141C3.54808 4.57141 4.57143 3.54806 4.57143 2.2857C4.57143 1.02334 3.54808 0 2.28571 0C1.02335 0 0 1.02334 0 2.2857C0 3.54806 1.02335 4.57141 2.28571 4.57141Z" fill="#828282"/>
</svg>
