<svg width="21" height="16" viewBox="0 0 21 16" fill="none" xmlns="http://www.w3.org/2000/svg">
<path d="M17.7635 1.3297C16.4339 0.70986 14.9942 0.259978 13.4946 4.59862e-05C13.4815 -0.000374507 13.4684 0.00209293 13.4563 0.00727485C13.4442 0.0124568 13.4334 0.0202273 13.4247 0.0300383C13.2447 0.359952 13.0348 0.789839 12.8948 1.11975C11.3042 0.879816 9.68663 0.879816 8.09605 1.11975C7.95608 0.779842 7.74614 0.359952 7.55619 0.0300383C7.54619 0.0100436 7.5162 4.59862e-05 7.4862 4.59862e-05C5.9866 0.259978 4.55697 0.70986 3.21732 1.3297C3.20732 1.3297 3.19733 1.3397 3.18733 1.34969C0.468042 5.41863 -0.281762 9.37759 0.088141 13.2966C0.088141 13.3166 0.0981384 13.3366 0.118133 13.3466C1.91766 14.6662 3.64721 15.466 5.35676 15.9959C5.38675 16.0059 5.41675 15.9959 5.42674 15.9759C5.82664 15.426 6.18654 14.8462 6.49646 14.2363C6.51646 14.1963 6.49646 14.1563 6.45647 14.1463C5.88662 13.9264 5.34677 13.6665 4.8169 13.3665C4.77691 13.3466 4.77691 13.2866 4.80691 13.2566C4.91688 13.1766 5.02685 13.0866 5.13682 13.0066C5.15681 12.9866 5.18681 12.9866 5.2068 12.9966C8.6459 14.5662 12.3549 14.5662 15.754 12.9966C15.774 12.9866 15.804 12.9866 15.824 13.0066C15.934 13.0966 16.044 13.1766 16.1539 13.2666C16.1939 13.2966 16.1939 13.3565 16.1439 13.3765C15.6241 13.6865 15.0742 13.9364 14.5044 14.1563C14.4644 14.1663 14.4544 14.2163 14.4644 14.2463C14.7843 14.8562 15.1442 15.436 15.5341 15.9859C15.5641 15.9959 15.5941 16.0059 15.6241 15.9959C17.3436 15.466 19.0732 14.6662 20.8727 13.3466C20.8927 13.3366 20.9027 13.3166 20.9027 13.2966C21.3426 8.76775 20.1729 4.83878 17.8035 1.34969C17.7935 1.3397 17.7835 1.3297 17.7635 1.3297ZM7.01633 10.9072C5.9866 10.9072 5.12682 9.95744 5.12682 8.78775C5.12682 7.61805 5.9666 6.6683 7.01633 6.6683C8.07605 6.6683 8.91583 7.62805 8.90583 8.78775C8.90583 9.95744 8.06605 10.9072 7.01633 10.9072ZM13.9845 10.9072C12.9548 10.9072 12.095 9.95744 12.095 8.78775C12.095 7.61805 12.9348 6.6683 13.9845 6.6683C15.0442 6.6683 15.884 7.62805 15.874 8.78775C15.874 9.95744 15.0442 10.9072 13.9845 10.9072Z" fill="white"/>
</svg>
