<svg width="19" height="19" viewBox="0 0 19 19" fill="none" xmlns="http://www.w3.org/2000/svg">
<path d="M15.7653 11.4932V15.5732C15.7651 16.1505 15.5357 16.7041 15.1275 17.1123C14.7193 17.5205 14.1657 17.7499 13.5884 17.7501H2.92794C2.64101 17.75 2.35693 17.6932 2.09202 17.583C1.82712 17.4727 1.58661 17.3112 1.38432 17.1077C1.18202 16.9042 1.02194 16.6628 0.913251 16.3972C0.804566 16.1317 0.749426 15.8473 0.751 15.5603V4.91183C0.749292 4.62535 0.804459 4.34138 0.913301 4.07638C1.02214 3.81138 1.1825 3.57062 1.38507 3.36804C1.58765 3.16547 1.82841 3.00512 2.09341 2.89627C2.35841 2.78743 2.64238 2.73226 2.92885 2.73397H7.00797" stroke="black" stroke-width="1.5" stroke-linecap="round" stroke-linejoin="round"/>
<path d="M15.7653 6.48871L12.0115 2.73398M4.5039 12.7448V10.7553C4.50574 10.4272 4.63622 10.112 4.86687 9.87954L13.6261 1.12034C13.7424 1.00304 13.8809 0.909933 14.0334 0.846395C14.1859 0.782857 14.3495 0.750145 14.5147 0.750145C14.6799 0.750145 14.8435 0.782857 14.996 0.846395C15.1485 0.909933 15.2869 1.00304 15.4033 1.12034L17.3799 3.09695C17.4974 3.21318 17.5907 3.35156 17.6544 3.50409C17.7181 3.65662 17.7509 3.82026 17.7509 3.98555C17.7509 4.15084 17.7181 4.31449 17.6544 4.46702C17.5907 4.61955 17.4974 4.75793 17.3799 4.87415L8.62069 13.6334C8.38772 13.8646 8.07319 13.9949 7.74495 13.9963H5.75548C5.42354 13.9963 5.10519 13.8645 4.87048 13.6298C4.63576 13.395 4.5039 13.0767 4.5039 12.7448Z" stroke="black" stroke-width="1.5" stroke-linecap="round" stroke-linejoin="round"/>
</svg>
