<svg width="18" height="12" viewBox="0 0 18 12" fill="none" xmlns="http://www.w3.org/2000/svg">
<path d="M8.8 3.6C8.16348 3.6 7.55303 3.85286 7.10294 4.30294C6.65286 4.75303 6.4 5.36348 6.4 6C6.4 6.63652 6.65286 7.24697 7.10294 7.69706C7.55303 8.14714 8.16348 8.4 8.8 8.4C9.43652 8.4 10.047 8.14714 10.4971 7.69706C10.9471 7.24697 11.2 6.63652 11.2 6C11.2 5.36348 10.9471 4.75303 10.4971 4.30294C10.047 3.85286 9.43652 3.6 8.8 3.6ZM8.8 10C7.73913 10 6.72172 9.57857 5.97157 8.82843C5.22143 8.07828 4.8 7.06087 4.8 6C4.8 4.93913 5.22143 3.92172 5.97157 3.17157C6.72172 2.42143 7.73913 2 8.8 2C9.86087 2 10.8783 2.42143 11.6284 3.17157C12.3786 3.92172 12.8 4.93913 12.8 6C12.8 7.06087 12.3786 8.07828 11.6284 8.82843C10.8783 9.57857 9.86087 10 8.8 10ZM8.8 0C4.8 0 1.384 2.488 0 6C1.384 9.512 4.8 12 8.8 12C12.8 12 16.216 9.512 17.6 6C16.216 2.488 12.8 0 8.8 0Z" fill="#53E059"/>
</svg>
