<svg width="16" height="16" viewBox="0 0 16 16" fill="none" xmlns="http://www.w3.org/2000/svg">
<path d="M4.2261 3.99116C4.00805 4.07567 3.89338 4.15679 3.8595 4.18975L2.63114 2.99485L5.00881 0.681946C5.97568 -0.258596 7.66098 -0.245075 8.77641 0.83997L9.78325 1.81938C9.9477 1.66954 10.1656 1.58772 10.3909 1.59119C10.6162 1.59466 10.8313 1.68315 10.9908 1.83798L14.5568 5.30691C14.7161 5.46195 14.8072 5.67113 14.811 5.89029C14.8147 6.10945 14.7307 6.32145 14.5768 6.48153L15.7452 7.61897C15.826 7.69745 15.8901 7.79065 15.9338 7.89324C15.9775 7.99582 16 8.10579 16 8.21684C16 8.32789 15.9775 8.43786 15.9338 8.54044C15.8901 8.64303 15.826 8.73623 15.7452 8.81471L13.9626 10.5488C13.7997 10.7072 13.5788 10.7962 13.3484 10.7962C13.1181 10.7962 12.8972 10.7072 12.7343 10.5488L11.565 9.41132C11.4104 9.55211 11.2084 9.63316 10.9967 9.63923C10.7851 9.6453 10.5785 9.57597 10.4157 9.44428L6.73668 5.86718C6.60117 5.70866 6.52991 5.50742 6.53631 5.30135C6.54271 5.09529 6.62633 4.8986 6.77142 4.74833L6.03389 4.03173C5.87752 3.87962 5.50745 3.75962 4.94105 3.82046C4.69588 3.84717 4.45616 3.90454 4.2261 3.99116ZM5.54567 7.09673L0.254347 12.2448C0.0914889 12.4032 0 12.6181 0 12.8422C0 13.0663 0.0914889 13.2812 0.254347 13.4397L2.63114 15.7526C2.79405 15.911 3.01497 16 3.24532 16C3.47567 16 3.69659 15.911 3.8595 15.7526L9.15083 10.6054L5.54567 7.09842V7.09673Z" fill="#949494"/>
</svg>
