<svg width="16" height="16" viewBox="0 0 16 16" fill="none" xmlns="http://www.w3.org/2000/svg">
<path fill-rule="evenodd" clip-rule="evenodd" d="M7.3707 0.260258C7.53762 0.0936147 7.76398 0 8 0C8.23602 0 8.46238 0.0936147 8.6293 0.260258L13.9699 5.59365L15.7501 7.37145C15.9123 7.5391 16.002 7.76364 16 7.99671C15.9979 8.22977 15.9043 8.45272 15.7393 8.61753C15.5743 8.78234 15.351 8.87582 15.1176 8.87785C14.8842 8.87987 14.6594 8.79028 14.4915 8.62836L14.2307 8.36791V14.2222C14.2307 14.6937 14.0432 15.1459 13.7093 15.4793C13.3755 15.8127 12.9227 16 12.4505 16H9.78021C9.54414 16 9.31774 15.9063 9.15081 15.7396C8.98388 15.5729 8.8901 15.3469 8.8901 15.1111V12.4444H7.1099V15.1111C7.1099 15.3469 7.01612 15.5729 6.84919 15.7396C6.68226 15.9063 6.45586 16 6.21979 16H3.54948C3.07734 16 2.62454 15.8127 2.29068 15.4793C1.95683 15.1459 1.76927 14.6937 1.76927 14.2222V8.36791L1.50847 8.62836C1.34059 8.79028 1.11575 8.87987 0.88237 8.87785C0.648987 8.87582 0.425738 8.78234 0.260706 8.61753C0.095673 8.45272 0.00206168 8.22977 3.36483e-05 7.99671C-0.00199438 7.76364 0.0877231 7.5391 0.249863 7.37145L2.03007 5.59365L7.3707 0.260258Z" fill="#949494"/>
</svg>
