<svg width="15" height="15" viewBox="0 0 15 15" fill="none" xmlns="http://www.w3.org/2000/svg">
<path d="M3.75 1.875C3.25272 1.875 2.77581 2.07254 2.42417 2.42417C2.07254 2.77581 1.875 3.25272 1.875 3.75V11.25C1.875 11.7473 2.07254 12.2242 2.42417 12.5758C2.77581 12.9275 3.25272 13.125 3.75 13.125H11.25C11.7473 13.125 12.2242 12.9275 12.5758 12.5758C12.9275 12.2242 13.125 11.7473 13.125 11.25V9.375C13.125 9.12636 13.2238 8.8879 13.3996 8.71209C13.5754 8.53627 13.8139 8.4375 14.0625 8.4375C14.3111 8.4375 14.5496 8.53627 14.7254 8.71209C14.9012 8.8879 15 9.12636 15 9.375V11.25C15 12.2446 14.6049 13.1984 13.9016 13.9016C13.1984 14.6049 12.2446 15 11.25 15H3.75C2.75544 15 1.80161 14.6049 1.09835 13.9016C0.395088 13.1984 0 12.2446 0 11.25V3.75C0 2.75544 0.395088 1.80161 1.09835 1.09835C1.80161 0.395088 2.75544 0 3.75 0H5.625C5.87364 0 6.1121 0.0987722 6.28791 0.274588C6.46373 0.450403 6.5625 0.68886 6.5625 0.9375C6.5625 1.18614 6.46373 1.4246 6.28791 1.60041C6.1121 1.77623 5.87364 1.875 5.625 1.875H3.75ZM9.375 1.875C9.12636 1.875 8.8879 1.77623 8.71209 1.60041C8.53627 1.4246 8.4375 1.18614 8.4375 0.9375C8.4375 0.68886 8.53627 0.450403 8.71209 0.274588C8.8879 0.0987722 9.12636 0 9.375 0H14.0625C14.3111 0 14.5496 0.0987722 14.7254 0.274588C14.9012 0.450403 15 0.68886 15 0.9375V5.625C15 5.87364 14.9012 6.1121 14.7254 6.28791C14.5496 6.46373 14.3111 6.5625 14.0625 6.5625C13.8139 6.5625 13.5754 6.46373 13.3996 6.28791C13.2238 6.1121 13.125 5.87364 13.125 5.625V3.20063L10.0388 6.28875C9.95159 6.37592 9.84811 6.44506 9.73422 6.49223C9.62033 6.5394 9.49827 6.56368 9.375 6.56368C9.25173 6.56368 9.12967 6.5394 9.01578 6.49223C8.90189 6.44506 8.79841 6.37592 8.71125 6.28875C8.62408 6.20159 8.55494 6.09811 8.50777 5.98422C8.4606 5.87033 8.43632 5.74827 8.43632 5.625C8.43632 5.50173 8.4606 5.37967 8.50777 5.26578C8.55494 5.15189 8.62408 5.04841 8.71125 4.96125L11.7994 1.875H9.375Z" fill="black"/>
</svg>
