<svg width="17" height="14" viewBox="0 0 17 14" fill="none" xmlns="http://www.w3.org/2000/svg">
<path d="M9.33333 0C7.47681 0 5.69634 0.737497 4.38358 2.05025C3.07083 3.36301 2.33333 5.14348 2.33333 7H0L3.02555 10.0256L3.08 10.1344L6.22222 7H3.88889C3.88889 3.99 6.32333 1.55555 9.33333 1.55555C12.3433 1.55555 14.7778 3.99 14.7778 7C14.7778 10.01 12.3433 12.4444 9.33333 12.4444C7.83222 12.4444 6.47111 11.83 5.49111 10.8422L4.38666 11.9467C5.03488 12.5984 5.80571 13.1155 6.65471 13.4679C7.50372 13.8203 8.41409 14.0011 9.33333 14C11.1898 14 12.9703 13.2625 14.2831 11.9497C15.5958 10.637 16.3333 8.85651 16.3333 7C16.3333 5.14348 15.5958 3.36301 14.2831 2.05025C12.9703 0.737497 11.1898 2.76642e-08 9.33333 0ZM8.55555 3.88889V7.77777L11.8844 9.75333L12.4444 8.81222L9.72222 7.19444V3.88889H8.55555Z" fill="#8C8C8C"/>
</svg>
