<svg width="568" height="448" viewBox="0 0 568 448" fill="none" xmlns="http://www.w3.org/2000/svg">
<path d="M143.6 10.4C137.5 3.8 129 0 120 0C111 0 102.5 3.8 96.4 10.4L8.4 106.4C-3.5 119.4 -2.7 139.7 10.4 151.6C23.5 163.5 43.7 162.7 55.6 149.6L88 114.3V416C88 433.7 102.3 448 120 448C137.7 448 152 433.7 152 416V114.3L184.4 149.7C196.3 162.7 216.6 163.6 229.6 151.7C242.6 139.8 243.5 119.5 231.6 106.5L143.6 10.5V10.4ZM312 448H344C361.7 448 376 433.7 376 416C376 398.3 361.7 384 344 384H312C294.3 384 280 398.3 280 416C280 433.7 294.3 448 312 448ZM312 320H408C425.7 320 440 305.7 440 288C440 270.3 425.7 256 408 256H312C294.3 256 280 270.3 280 288C280 305.7 294.3 320 312 320ZM312 192H472C489.7 192 504 177.7 504 160C504 142.3 489.7 128 472 128H312C294.3 128 280 142.3 280 160C280 177.7 294.3 192 312 192ZM312 64H536C553.7 64 568 49.7 568 32C568 14.3 553.7 0 536 0H312C294.3 0 280 14.3 280 32C280 49.7 294.3 64 312 64Z" fill="black"/>
</svg>
