<svg width="13" height="9" viewBox="0 0 13 9" fill="none" xmlns="http://www.w3.org/2000/svg">
<path d="M2.08936 4.39634L0.101876 6.39097C-0.0339588 6.53395 -0.0339588 6.75558 0.101876 6.89856L2.08936 8.89319C2.31098 9.12197 2.69704 8.95754 2.69704 8.64297V7.35611H6.99372C7.38693 7.35611 7.70864 7.0344 7.70864 6.64119C7.70864 6.24798 7.38693 5.92627 6.99372 5.92627H2.69704V4.64656C2.69704 4.32484 2.31098 4.16756 2.08936 4.39634ZM12.4629 2.10144L10.4754 0.106805C10.2538 -0.121969 9.86771 0.0424625 9.86771 0.357028V1.63674H5.56388C5.17067 1.63674 4.84896 1.95845 4.84896 2.35166C4.84896 2.74487 5.17067 3.06658 5.56388 3.06658H9.86056V4.34629C9.86056 4.66801 10.2466 4.82529 10.4682 4.59651L12.4557 2.60188C12.5987 2.46605 12.5987 2.23727 12.4629 2.10144Z" fill="#FCEFEF"/>
</svg>
