<svg width="17" height="17" viewBox="0 0 17 17" fill="none" xmlns="http://www.w3.org/2000/svg">
<path fill-rule="evenodd" clip-rule="evenodd" d="M8.50001 0C13.1946 0 17 3.80545 17 8.5C17.003 10.4617 16.3246 12.3636 15.0807 13.8805L15.0977 13.8992L14.9855 13.9944C14.1884 14.9372 13.1951 15.6947 12.0749 16.2138C10.9547 16.733 9.73464 17.0013 8.50001 17C5.99251 17 3.74001 15.9145 2.18451 14.189L2.01451 13.9935L1.90231 13.9L1.91931 13.8796C0.675553 12.363 -0.00286231 10.4614 9.07751e-06 8.5C9.07751e-06 3.80545 3.80546 0 8.50001 0ZM8.50001 12.75C6.91901 12.75 5.49016 13.2532 4.42596 13.9451C5.60101 14.8268 7.03096 15.3023 8.50001 15.3C9.96905 15.3023 11.399 14.8268 12.5741 13.9451C11.358 13.1659 9.94428 12.7512 8.50001 12.75ZM8.50001 1.7C7.22035 1.69996 5.96666 2.06101 4.88302 2.74163C3.79939 3.42226 2.92979 4.39484 2.37419 5.54758C1.8186 6.70033 1.59954 7.98646 1.74221 9.25813C1.88488 10.5298 2.38348 11.7354 3.18071 12.7364C4.55856 11.7478 6.43876 11.05 8.50001 11.05C10.5613 11.05 12.4415 11.7478 13.8193 12.7364C14.6165 11.7354 15.1151 10.5298 15.2578 9.25813C15.4005 7.98646 15.1814 6.70033 14.6258 5.54758C14.0702 4.39484 13.2006 3.42226 12.117 2.74163C11.0334 2.06101 9.77966 1.69996 8.50001 1.7ZM8.50001 3.4C9.40174 3.4 10.2665 3.75821 10.9042 4.39584C11.5418 5.03346 11.9 5.89826 11.9 6.8C11.9 7.70173 11.5418 8.56654 10.9042 9.20416C10.2665 9.84178 9.40174 10.2 8.50001 10.2C7.59827 10.2 6.73347 9.84178 6.09584 9.20416C5.45822 8.56654 5.10001 7.70173 5.10001 6.8C5.10001 5.89826 5.45822 5.03346 6.09584 4.39584C6.73347 3.75821 7.59827 3.4 8.50001 3.4ZM8.50001 5.1C8.04914 5.1 7.61674 5.27911 7.29793 5.59792C6.97911 5.91673 6.80001 6.34913 6.80001 6.8C6.80001 7.25087 6.97911 7.68327 7.29793 8.00208C7.61674 8.32089 8.04914 8.5 8.50001 8.5C8.95087 8.5 9.38328 8.32089 9.70209 8.00208C10.0209 7.68327 10.2 7.25087 10.2 6.8C10.2 6.34913 10.0209 5.91673 9.70209 5.59792C9.38328 5.27911 8.95087 5.1 8.50001 5.1Z" fill="black"/>
</svg>
