<svg width="24" height="17" viewBox="0 0 24 17" fill="none" xmlns="http://www.w3.org/2000/svg">
<path d="M23.1351 8.23727C22.2263 5.88636 20.6485 3.85329 18.5967 2.38934C16.545 0.925384 14.1093 0.0947154 11.5906 0C9.07189 0.0947154 6.63615 0.925384 4.58442 2.38934C2.53268 3.85329 0.954886 5.88636 0.0460349 8.23727C-0.015345 8.40705 -0.015345 8.59295 0.0460349 8.76273C0.954886 11.1136 2.53268 13.1467 4.58442 14.6107C6.63615 16.0746 9.07189 16.9053 11.5906 17C14.1093 16.9053 16.545 16.0746 18.5967 14.6107C20.6485 13.1467 22.2263 11.1136 23.1351 8.76273C23.1965 8.59295 23.1965 8.40705 23.1351 8.23727ZM11.5906 15.4545C7.49513 15.4545 3.16785 12.4177 1.59922 8.5C3.16785 4.58227 7.49513 1.54545 11.5906 1.54545C15.686 1.54545 20.0133 4.58227 21.5819 8.5C20.0133 12.4177 15.686 15.4545 11.5906 15.4545Z" fill="black"/>
<path d="M11.5905 3.86365C10.6735 3.86365 9.77709 4.13557 9.01464 4.64502C8.25219 5.15447 7.65794 5.87857 7.30703 6.72575C6.95611 7.57294 6.86429 8.50515 7.04319 9.40452C7.22209 10.3039 7.66366 11.13 8.31206 11.7784C8.96047 12.4268 9.78659 12.8684 10.686 13.0473C11.5853 13.2262 12.5175 13.1344 13.3647 12.7835C14.2119 12.4325 14.936 11.8383 15.4455 11.0758C15.9549 10.3134 16.2268 9.417 16.2268 8.50001C16.2268 7.27037 15.7384 6.09109 14.8689 5.22161C13.9994 4.35212 12.8201 3.86365 11.5905 3.86365ZM11.5905 11.5909C10.9791 11.5909 10.3815 11.4096 9.87325 11.07C9.36495 10.7304 8.96878 10.2476 8.73484 9.68285C8.5009 9.11806 8.43969 8.49658 8.55895 7.897C8.67821 7.29743 8.97259 6.74668 9.40486 6.31441C9.83714 5.88214 10.3879 5.58776 10.9875 5.46849C11.587 5.34923 12.2085 5.41044 12.7733 5.64438C13.3381 5.87833 13.8208 6.2745 14.1605 6.78279C14.5001 7.29109 14.6814 7.88869 14.6814 8.50001C14.6814 9.31977 14.3557 10.106 13.7761 10.6856C13.1964 11.2653 12.4102 11.5909 11.5905 11.5909Z" fill="black"/>
</svg>
