<svg width="17" height="14" viewBox="0 0 17 14" fill="none" xmlns="http://www.w3.org/2000/svg">
<path fill-rule="evenodd" clip-rule="evenodd" d="M8.125 0.5C8.81969 0.5 9.53225 0.517875 10.2229 0.547125L11.0386 0.586125L11.8194 0.632438L12.5507 0.682L13.2186 0.734C13.9435 0.789162 14.6256 1.09835 15.145 1.60711C15.6643 2.11588 15.9874 2.79157 16.0574 3.51519L16.0899 3.8605L16.1509 4.59987C16.2078 5.36606 16.25 6.20131 16.25 7C16.25 7.79869 16.2078 8.63394 16.1509 9.40013L16.0899 10.1395L16.0574 10.4848C15.9874 11.2086 15.6641 11.8844 15.1447 12.3931C14.6252 12.9019 13.9428 13.211 13.2177 13.266L12.5515 13.3172L11.8203 13.3676L11.0386 13.4139L10.2229 13.4529C9.52399 13.4831 8.82454 13.4989 8.125 13.5C7.42546 13.4989 6.72601 13.4831 6.02713 13.4529L5.21137 13.4139L4.43056 13.3676L3.69931 13.3172L3.03144 13.266C2.30654 13.2108 1.62435 12.9016 1.10504 12.3929C0.585722 11.8841 0.262593 11.2084 0.192562 10.4848L0.160063 10.1395L0.099125 9.40013C0.0372391 8.60154 0.00417596 7.80097 0 7C0 6.20131 0.04225 5.36606 0.099125 4.59987L0.160063 3.8605L0.192562 3.51519C0.262565 2.7917 0.585578 2.1161 1.10473 1.60736C1.62387 1.09862 2.30587 0.789345 3.03063 0.734L3.69769 0.682L4.42894 0.632438L5.21056 0.586125L6.02631 0.547125C6.72547 0.516841 7.42519 0.501129 8.125 0.5ZM6.5 5.02969V8.97031C6.5 9.34569 6.90625 9.57969 7.23125 9.39281L10.6438 7.4225C10.718 7.37976 10.7797 7.3182 10.8226 7.24402C10.8655 7.16985 10.888 7.08568 10.888 7C10.888 6.91432 10.8655 6.83015 10.8226 6.75598C10.7797 6.6818 10.718 6.62024 10.6438 6.5775L7.23125 4.608C7.15712 4.5652 7.07302 4.54267 6.98742 4.54269C6.90182 4.5427 6.81773 4.56525 6.74361 4.60808C6.6695 4.6509 6.60796 4.71249 6.5652 4.78664C6.52243 4.86079 6.49995 4.9449 6.5 5.0305V5.02969Z" fill="#E1E1E1"/>
</svg>
