<svg width="15" height="9" viewBox="0 0 15 9" fill="none" xmlns="http://www.w3.org/2000/svg">
<path d="M0.5 8.3891V0.611328H2.05556V3.72244H5.16667V0.611328H6.72222V8.3891H5.16667V5.27799H2.05556V8.3891H0.5ZM8.27778 8.3891V5.27799C8.27778 4.85022 8.43022 4.48414 8.73511 4.17977C9.04 3.8754 9.40607 3.72296 9.83333 3.72244H12.9444V2.16688H8.27778V0.611328H12.9444C13.3722 0.611328 13.7386 0.763772 14.0434 1.06866C14.3483 1.37355 14.5005 1.73962 14.5 2.16688V3.72244C14.5 4.15022 14.3478 4.51655 14.0434 4.82144C13.7391 5.12633 13.3727 5.27851 12.9444 5.27799H9.83333V6.83355H14.5V8.3891H8.27778Z" fill="#E1E1E1"/>
</svg>
