<svg width="17" height="9" viewBox="0 0 17 9" fill="none" xmlns="http://www.w3.org/2000/svg">
<path d="M7.7 8.5H4.5C3.39333 8.5 2.45013 8.10986 1.6704 7.3296C0.890667 6.54933 0.500534 5.60613 0.500001 4.5C0.499467 3.39387 0.8896 2.45067 1.6704 1.6704C2.4512 0.890133 3.3944 0.5 4.5 0.5H7.7V2.1H4.5C3.83333 2.1 3.26667 2.33333 2.8 2.8C2.33333 3.26667 2.1 3.83333 2.1 4.5C2.1 5.16667 2.33333 5.73333 2.8 6.2C3.26667 6.66666 3.83333 6.9 4.5 6.9H7.7V8.5ZM5.3 5.3V3.7H11.7V5.3H5.3ZM9.3 8.5V6.9H12.5C13.1667 6.9 13.7333 6.66666 14.2 6.2C14.6667 5.73333 14.9 5.16667 14.9 4.5C14.9 3.83333 14.6667 3.26667 14.2 2.8C13.7333 2.33333 13.1667 2.1 12.5 2.1H9.3V0.5H12.5C13.6067 0.5 14.5501 0.890133 15.3304 1.6704C16.1107 2.45067 16.5005 3.39387 16.5 4.5C16.4995 5.60613 16.1093 6.5496 15.3296 7.3304C14.5499 8.1112 13.6067 8.50106 12.5 8.5H9.3Z" fill="#E1E1E1"/>
</svg>
