<svg width="15" height="15" viewBox="0 0 15 15" fill="none" xmlns="http://www.w3.org/2000/svg">
<path d="M0.75 15V13.875H2.625V13.3125H1.5V12.1875H2.625V11.625H0.75V10.5H3C3.2125 10.5 3.39075 10.572 3.53475 10.716C3.67875 10.86 3.7505 11.038 3.75 11.25V12C3.75 12.2125 3.678 12.3907 3.534 12.5347C3.39 12.6787 3.212 12.7505 3 12.75C3.2125 12.75 3.39075 12.822 3.53475 12.966C3.67875 13.11 3.7505 13.288 3.75 13.5V14.25C3.75 14.4625 3.678 14.6407 3.534 14.7847C3.39 14.9287 3.212 15.0005 3 15H0.75ZM0.75 9.75V7.6875C0.75 7.475 0.822 7.297 0.966 7.1535C1.11 7.01 1.288 6.938 1.5 6.9375H2.625V6.375H0.75V5.25H3C3.2125 5.25 3.39075 5.322 3.53475 5.466C3.67875 5.61 3.7505 5.788 3.75 6V7.3125C3.75 7.525 3.678 7.70325 3.534 7.84725C3.39 7.99125 3.212 8.063 3 8.0625H1.875V8.625H3.75V9.75H0.75ZM1.875 4.5V1.125H0.75V0H3V4.5H1.875ZM5.25 12.75V11.25H14.25V12.75H5.25ZM5.25 8.25V6.75H14.25V8.25H5.25ZM5.25 3.75V2.25H14.25V3.75H5.25Z" fill="#E1E1E1"/>
</svg>
