<svg width="13" height="13" viewBox="0 0 13 13" fill="none" xmlns="http://www.w3.org/2000/svg">
<path d="M4.81998 12.5C3.52664 12.5 2.41651 12.08 1.48958 11.24C0.562643 10.4 0.0994427 9.35333 0.099976 8.1C0.100509 6.84667 0.563976 5.8 1.49038 4.96C2.41678 4.12 3.52664 3.7 4.81998 3.7H9.85998L7.77998 1.62L8.89998 0.5L12.9 4.5L8.89998 8.5L7.77998 7.38L9.85998 5.3H4.81998C3.97998 5.3 3.24984 5.56667 2.62958 6.1C2.00931 6.63333 1.69944 7.3 1.69998 8.1C1.70051 8.9 2.01064 9.56667 2.63038 10.1C3.25011 10.6333 3.97998 10.9 4.81998 10.9H10.5V12.5H4.81998Z" fill="#E1E1E1"/>
</svg>
