<svg width="13" height="13" viewBox="0 0 13 13" fill="none" xmlns="http://www.w3.org/2000/svg">
<path d="M2.49998 12.5V10.9H8.17998C9.01998 10.9 9.75011 10.6333 10.3704 10.1C10.9906 9.56667 11.3005 8.9 11.3 8.1C11.2994 7.3 10.9896 6.63333 10.3704 6.1C9.75118 5.56667 9.02104 5.3 8.17998 5.3H3.13998L5.21998 7.38L4.09998 8.5L0.0999756 4.5L4.09998 0.5L5.21998 1.62L3.13998 3.7H8.17998C9.47331 3.7 10.5834 4.12 11.5104 4.96C12.4373 5.8 12.9005 6.84667 12.9 8.1C12.8994 9.35333 12.4362 10.4 11.5104 11.24C10.5845 12.08 9.47438 12.5 8.17998 12.5H2.49998Z" fill="#E1E1E1"/>
</svg>
