<svg width="9" height="11" viewBox="0 0 9 11" fill="none" xmlns="http://www.w3.org/2000/svg">
<path d="M0.414307 11V0H4.75538C5.60657 0 6.39228 0.261905 7.11252 0.785714C7.83276 1.30952 8.19288 2.03631 8.19288 2.96607C8.19288 3.63393 8.04228 4.14805 7.74109 4.50843C7.4399 4.86881 7.15835 5.12731 6.89645 5.28393C7.22383 5.42798 7.58735 5.69643 7.98702 6.08929C8.38669 6.48214 8.58626 7.07143 8.58574 7.85714C8.58574 9.02262 8.16014 9.83793 7.30895 10.3031C6.45776 10.7682 5.65895 11.0005 4.91252 11H0.414307ZM2.79109 8.8H4.83395C5.46252 8.8 5.84569 8.63971 5.98345 8.31914C6.12121 7.99857 6.18983 7.766 6.18931 7.62143C6.18878 7.47686 6.12016 7.24455 5.98345 6.9245C5.84673 6.60445 5.44393 6.4439 4.77502 6.44286H2.79109V8.8ZM2.79109 4.32143H4.61788C5.05002 4.32143 5.36431 4.21012 5.56074 3.9875C5.75716 3.76488 5.85538 3.51607 5.85538 3.24107C5.85538 2.92679 5.74407 2.67143 5.52145 2.475C5.29883 2.27857 5.01073 2.18036 4.65716 2.18036H2.79109V4.32143Z" fill="#E1E1E1"/>
</svg>
