<svg width="17" height="17" viewBox="0 0 17 17" fill="none" xmlns="http://www.w3.org/2000/svg">
<path d="M14.5247 11.4925L13.3277 10.2557C13.8597 10.1094 14.292 9.82661 14.6244 9.4074C14.9569 8.98819 15.1232 8.49957 15.1232 7.94151C15.1232 7.27653 14.8904 6.71129 14.425 6.2458C13.9595 5.78032 13.3942 5.54757 12.7292 5.54757H9.53733V3.95161H12.7292C13.8331 3.95161 14.7742 4.34076 15.5525 5.11906C16.3308 5.89735 16.7197 6.83817 16.7191 7.94151C16.7191 8.69959 16.5231 9.39782 16.131 10.0362C15.739 10.6746 15.2035 11.16 14.5247 11.4925ZM11.8116 8.73949L10.2156 7.14353H11.9313V8.73949H11.8116ZM14.9636 16.4001L0.280762 1.71727L1.39793 0.600098L16.0808 15.2829L14.9636 16.4001ZM7.94137 11.9314H4.74945C3.64558 11.9314 2.70476 11.5423 1.92699 10.764C1.14923 9.98567 0.760082 9.04485 0.75955 7.94151C0.75955 7.02383 1.03884 6.20591 1.59743 5.48772C2.15601 4.76954 2.8742 4.2974 3.75197 4.07131L5.22824 5.54757H4.74945C4.08447 5.54757 3.51923 5.78032 3.05374 6.2458C2.58825 6.71129 2.35551 7.27653 2.35551 7.94151C2.35551 8.60649 2.58825 9.17173 3.05374 9.63722C3.51923 10.1027 4.08447 10.3355 4.74945 10.3355H7.94137V11.9314ZM5.54743 8.73949V7.14353H6.84415L8.42016 8.73949H5.54743Z" fill="#E1E1E1"/>
</svg>
