<svg width="15" height="13" viewBox="0 0 15 13" fill="none" xmlns="http://www.w3.org/2000/svg">
<path d="M5.24999 11.75V10.25H14.25V11.75H5.24999ZM5.24999 7.24999V5.74999H14.25V7.24999H5.24999ZM5.24999 2.75V1.25H14.25V2.75H5.24999ZM2.25 12.5C1.8375 12.5 1.4845 12.3532 1.191 12.0597C0.897501 11.7662 0.750501 11.413 0.750001 11C0.749501 10.587 0.896501 10.234 1.191 9.94098C1.4855 9.64798 1.8385 9.50099 2.25 9.49999C2.6615 9.49899 3.01475 9.64598 3.30975 9.94098C3.60474 10.236 3.75149 10.589 3.74999 11C3.74849 11.411 3.60174 11.7642 3.30975 12.0597C3.01775 12.3552 2.6645 12.502 2.25 12.5ZM2.25 7.99999C1.8375 7.99999 1.4845 7.85324 1.191 7.55974C0.897501 7.26624 0.750501 6.91299 0.750001 6.49999C0.749501 6.08699 0.896501 5.73399 1.191 5.44099C1.4855 5.148 1.8385 5.001 2.25 5C2.6615 4.999 3.01475 5.146 3.30975 5.44099C3.60474 5.73599 3.75149 6.08899 3.74999 6.49999C3.74849 6.91099 3.60174 7.26424 3.30975 7.55974C3.01775 7.85524 2.6645 8.00199 2.25 7.99999ZM2.25 3.5C1.8375 3.5 1.4845 3.35325 1.191 3.05975C0.897501 2.76625 0.750501 2.413 0.750001 2C0.749501 1.587 0.896501 1.234 1.191 0.941004C1.4855 0.648005 1.8385 0.501005 2.25 0.500005C2.6615 0.499005 3.01475 0.646005 3.30975 0.941004C3.60474 1.236 3.75149 1.589 3.74999 2C3.74849 2.411 3.60174 2.76425 3.30975 3.05975C3.01775 3.35525 2.6645 3.502 2.25 3.5Z" fill="#E1E1E1"/>
</svg>
